#!OML:ASF F:\VICON\USERDATA\INSTALL\rory3\rory3.ASF
:FULLY-SPECIFIED
:DEGREES
53
root 0.4300901210296331 18.177973916614928 13.473131315934305 -4.630144453164782 2.33940209528288 -4.818866100196695
lfemur -13.115335241530651 -0.07542034942932885 -14.351331907299269
ltibia 66.61500951944134
lfoot -6.647283969939618 -8.793760273103372
ltoes -15.045959855131077
rfemur -6.687003709528519 4.990057264266936 32.538769456928385
rtibia 24.95322184014274
rfoot -13.874894283311878 -7.384685427530449
rtoes 7.39459348473211
lowerback 11.016531184775921 -0.2498067819086782 1.2843163354393872
upperback 0.22546740451732367 0.05039224189591107 2.4014061480471476
thorax -6.3592485248044115 0.019157962699295955 1.8463618153701329
lowerneck -15.423541581755465 -3.3468944593602434 -2.2861840240344713
upperneck 22.112613906355154 -4.371609846495859 1.81588978857316
head 9.692135862233053 -2.055085356525494 0.5083520191577025
lclavicle 2.9594466383126636e-16 5.30399677884098e-17
lhumerus -31.93712437441519 4.17313994914263 81.42886771318327
lradius 25.597832519095178
lwrist 7.047146541537884
lhand -29.72798692215648 18.50925380645846
lfingers 7.125020000000001
lthumb -3.1199034018481235 48.367852833560505
rclavicle 2.9147269424663304e-16 5.065679481962784e-17
rhumerus -33.56482462456266 -22.26484703234324 -75.70332125356177
rradius 24.945511416921278
rwrist 5.551741163356947
rhand -17.24155162289307 22.07784940259221
rfingers 7.125020000000001
rthumb 8.827293520573305 -7.552609008751816
54
root 0.4303594648139709 18.144386840212444 13.767310737502239 -4.0841810143348205 1.3589539171247864 -5.442250883230843
lfemur -16.139744686683553 0.5055111821985601 -13.996972145212919
ltibia 64.79614433077262
lfoot -9.034263740155387 -6.23677208153536
ltoes -17.668110717345147
rfemur -5.075984620904816 5.399243394734382 33.23390930655314
rtibia 25.437435878524063
rfoot -15.302887772163427 -7.4297552375235005
rtoes 6.722030606518134
lowerback 10.955442808725333 0.17216308663416036 2.1541429784432493
upperback 0.04142929820756369 0.6752594390249531 2.228353169461576
thorax -6.425076367810732 0.2921197156919774 1.007119193930429
lowerneck -15.55620501747783 -3.4116331204879558 -2.229023894876941
upperneck 22.18092581053619 -4.491924145289431 1.8613997604538566
head 9.70584039591413 -2.0963538830834154 0.48244561890351223
lclavicle 2.9553627820885685e-16 5.274696054405915e-17
lhumerus -32.66328531786607 4.786678903947227 81.39657682342866
lradius 24.551507118348614
lwrist 7.05959613797333
lhand -28.920054253767848 19.036381090809915
lfingers 7.125020000000001
lthumb -2.2171199953704033 49.67981401116973
rclavicle 2.934668907004235e-16 5.193283509529672e-17
rhumerus -31.77830928808544 -20.231094340180718 -77.25793532188067
rradius 26.8401195733211
rwrist 4.190189042280861
rhand -17.27442155606852 19.730512925613144
rfingers 7.125020000000001
rthumb 8.911992962044552 -9.897143090974321
55
root 0.43798863409593275 18.06372509073993 14.468819556016506 -3.62706534820094 0.6765698386451235 -6.062584888077356
lfemur -18.892564298801396 0.6313613582624797 -13.592449840459132
ltibia 61.39154167577267
lfoot -9.580402852050359 -4.072237870546394
ltoes -14.689953895163107
rfemur -3.6305818962439353 5.422111951495138 33.85323369266586
rtibia 26.193429654274947
rfoot -16.747863739386585 -7.332845969340699
rtoes 6.296813435279164
lowerback 11.124450816125202 0.4634349862828886 3.200534096287247
upperback -0.12880950848885425 1.2299304907985285 2.1346599261598334
thorax -6.60318236344489 0.522859997525999 0.07199513403018876
lowerneck -15.651916912464081 -3.4430770593022846 -2.2258719238826274
upperneck 22.153201688130704 -4.555945064484425 1.866166431937182
head 9.692558062185268 -2.1168982804349556 0.4520058666607231
lclavicle 2.9642631125117036e-16 5.338691125938072e-17
lhumerus -33.27925253860027 5.641555862476524 81.26386407103116
lradius 23.765372841626
lwrist 7.527544932341855
lhand -28.926607874331324 19.259270097247185
lfingers 7.125020000000001
lthumb -2.3680195233255272 49.52960247843943
rclavicle 2.950166058376676e-16 5.311145717606558e-17
rhumerus -29.910717707427988 -18.092438053705813 -78.50812341595372
rradius 28.613088679817263
rwrist 2.9385376259135207
rhand -17.916769186361552 19.55795909189105
rfingers 7.125020000000001
rthumb 8.31617764951982 -10.115363222979779
56
root 0.45348935810950397 17.998515088788903 15.075007032890454 -3.0183328465004147 -0.07232651068171886 -6.6384219428896705
lfemur -20.925294403399448 0.8157809259427591 -13.208096515292876
ltibia 56.26029347424337
lfoot -10.093316481693488 -1.5364930772177836
ltoes -12.802291656616623
rfemur -1.4687144052474483 5.89988378714932 34.559059788437
rtibia 26.145532178518913
rfoot -17.153049269276146 -7.314882055769395
rtoes 6.208881957179823
lowerback 11.108283973486609 0.7871545383468851 4.0589193945776
upperback -0.20668885980452895 1.797846277814714 2.0871864340781836
thorax -6.576692451399667 0.7548766910687191 -0.7620690098632632
lowerneck -15.747457795901996 -3.4940967663906854 -2.2040339304870016
upperneck 21.955314707104872 -4.640606655832254 1.8037058665361996
head 9.6511686679744 -2.1441033293766703 0.3899930326197846
lclavicle 2.9706039910066363e-16 5.38427442808607e-17
lhumerus -33.70950663378876 6.1499613082442925 81.33486776629945
lradius 23.164527731218303
lwrist 7.818252142143084
lhand -29.304032202533804 19.763925282969804
lfingers 7.125020000000001
lthumb -2.752382138903952 50.07379924226708
rclavicle 2.951708430501123e-16 5.3005644936170145e-17
rhumerus -27.924939221220654 -16.049066786241035 -79.42619973604171
rradius 30.484828738322324
rwrist 1.2049871149127473
rhand -18.409193044559174 20.65499566635674
rfingers 7.125020000000001
rthumb 7.836377267124318 -9.102517131712522
57
root 0.4755718378617956 17.948519727627623 15.789819069252534 -2.3657759372884017 -0.616248292837861 -7.1601796488945135
lfemur -22.031831799994 0.36952612744302726 -12.61051768899205
ltibia 49.22689334373017
lfoot -9.746309196452785 0.5445642082462694
ltoes -11.024460641015052
rfemur 0.7359618605629539 6.056707263159371 35.076557638211426
rtibia 25.46156793076189
rfoot -16.782408476727266 -7.399909428723364
rtoes 5.588154011973311
lowerback 10.957290321741393 1.078063685003423 4.81758706479507
upperback -0.2838776336883856 2.2393868982843355 2.096301452625616
thorax -6.475935615802065 0.9674306585729022 -1.2793416869572922
lowerneck -15.943453008195469 -3.51460971323425 -2.10609387029518
upperneck 21.602446315756637 -4.679744827316115 1.6871564682945128
head 9.541342247713883 -2.1515651545027166 0.31055076074691973
lclavicle 2.977127253194564e-16 5.431157548867642e-17
lhumerus -34.02050990690369 6.535517821714804 81.41631851859282
lradius 22.33338714085593
lwrist 7.856982883065951
lhand -30.1047062032433 18.68322893447036
lfingers 7.125020000000001
lthumb -3.3966594299024613 49.22714955031942
rclavicle 2.961382974601441e-16 5.3500568005454986e-17
rhumerus -25.861020882946335 -14.571735160127542 -79.89817222382152
rradius 31.58649275699536
rwrist 0.3759743483312161
rhand -18.666169763193448 22.35727928864328
rfingers 7.125020000000001
rthumb 7.540220713576365 -7.538097674573658
